<?xml version="1.0" encoding="UTF-8"?>
<svg id="Capa_1" data-name="Capa 1" xmlns="http://www.w3.org/2000/svg" viewBox="0 0 742 718">
  <defs>
    <style>
      .cls-1 {
        fill: #ff7a00;
        stroke-width: 0px;
      }
    </style>
  </defs>
  <rect class="cls-1" x="18.28" y="316.5" width="299.84" height="85.57"/>
  <path class="cls-1" d="M381.78,167.6c70.95,0,132.89,38.55,166.03,95.84l130.45-75.3C619.08,85.84,508.48,17,381.78,17c-155.61,0-286.95,103.85-328.54,246.02h162.76c33.2-57.05,95.01-95.41,165.78-95.41Z"/>
  <path class="cls-1" d="M699.4,359.28h-274.49v106.96h115.95c-34.43,51.1-92.83,84.71-159.08,84.71-70.77,0-132.57-38.36-165.78-95.41H53.25c41.59,142.17,172.93,246.02,328.54,246.02,189.04,0,342.28-153.25,342.28-342.28h-24.67Z"/>
</svg>