<?xml version="1.0" encoding="UTF-8"?>
<svg id="Capa_1" data-name="Capa 1" xmlns="http://www.w3.org/2000/svg" viewBox="0 0 1928 528.5">
  <defs>
    <style>
      .cls-1 {
        fill: #fff;
        stroke-width: 0px;
      }
    </style>
  </defs>
  <path class="cls-1" d="M692.1,497.59c-22.55,0-43.06-2.03-61.55-6.09-18.49-4.06-34.39-10.59-47.68-19.61-13.3-9.01-23.45-21.07-30.44-36.18-6.99-15.1-10.48-33.48-10.48-55.12,0-27.95,6.99-49.93,20.97-65.94,13.97-16,32.23-27.5,54.78-34.49,22.54-6.98,46.44-10.48,71.69-10.48,12.62,0,24.35.57,35.17,1.69,10.82,1.13,20.51,2.6,29.09,4.4v-11.5c0-11.72-2.48-22.2-7.44-31.45-4.97-9.24-12.85-16.57-23.67-21.98-10.82-5.41-25.25-8.12-43.29-8.12s-34.49,1.25-50.72,3.72c-16.23,2.48-29.54,5.53-39.91,9.13l-12.85-75.07c11.26-4.06,27.61-7.78,49.03-11.16,21.41-3.38,43.39-5.07,65.94-5.07,38.77,0,69.21,5.86,91.3,17.58,22.09,11.73,37.76,28.41,47.01,50.05,9.24,21.64,13.86,47.34,13.86,77.1v212.37c-13.53,3.16-33.71,6.66-60.53,10.48-26.83,3.82-56.93,5.75-90.29,5.75ZM698.86,422.51c9.91,0,19.72-.22,29.42-.68,9.69-.44,18.15-.9,25.37-1.35v-81.84c-5.87-.9-13.08-1.69-21.65-2.37-8.57-.68-16.46-1.01-23.67-1.01-13.09,0-25.26,1.13-36.52,3.38-11.28,2.26-20.41,6.42-27.39,12.51-7,6.09-10.48,15-10.48,26.72,0,15.79,5.97,27.17,17.92,34.15,11.94,7,27.61,10.48,47.01,10.48Z"/>
  <path class="cls-1" d="M886.23,489.47V144.54c16.68-4.5,37.3-8.79,61.89-12.85,24.57-4.06,51.06-6.09,79.47-6.09,37.88,0,67.3,6.88,88.26,20.63,20.97,13.76,35.61,32.8,43.96,57.15,8.34,24.35,12.51,52.75,12.51,85.22v200.87h-93.34v-188.7c0-22.09-1.59-40.01-4.73-53.77-3.16-13.75-8.91-23.89-17.25-30.44-8.35-6.53-20.18-9.81-35.51-9.81-6.76,0-13.64.34-20.63,1.01-7,.68-14.32,1.47-21.98,2.37v279.33h-92.66Z"/>
  <path class="cls-1" d="M1411.1,497.59c-40.14,0-74.85-6.88-104.16-20.63-29.31-13.75-51.86-34.26-67.64-61.55-15.79-27.27-23.67-60.98-23.67-101.11,0-31.55,4.62-59.18,13.86-82.85,9.24-23.67,21.86-43.51,37.87-59.52,16-16,34.04-27.95,54.11-35.85,20.06-7.88,40.69-11.84,61.89-11.84,52.3,0,92.2,15.56,119.71,46.67,27.5,31.11,41.26,76.43,41.26,135.94,0,5.86-.11,12.07-.34,18.6-.23,6.54-.57,12.07-1.01,16.57h-231.31c0,23,9.57,41.15,28.74,54.44,19.16,13.31,43.85,19.95,74.06,19.95,18.48,0,36.41-1.91,53.77-5.75,17.35-3.82,31.67-7.78,42.95-11.84l12.85,79.13c-15.79,5.87-32.92,10.6-51.4,14.2-18.49,3.6-39,5.41-61.55,5.41ZM1311.67,277.1h142.71c0-12.62-2.26-24.57-6.76-35.85-4.51-11.27-11.84-20.51-21.98-27.73-10.14-7.21-23.57-10.82-40.24-10.82s-29.54,3.5-39.91,10.48c-10.38,7-18.26,16.13-23.67,27.39-5.41,11.28-8.79,23.45-10.14,36.52Z"/>
  <path class="cls-1" d="M1544.33,489.47c9.91-18.94,21.86-38.99,35.85-60.2,13.97-21.19,28.75-42.38,44.3-63.58,15.56-21.19,30.77-41.02,45.65-59.52l-124.45-172.47h97.39l78.46,110.92,73.04-110.92h94.69l-114.98,171.11c15.78,18.94,31.33,39.68,46.67,62.22,15.32,22.55,29.42,44.53,42.27,65.94,12.85,21.42,23.1,40.24,30.77,56.47h-97.39c-9.02-17.13-18.04-33.14-27.05-48.02-9.03-14.88-17.92-28.63-26.71-41.26-8.79-12.62-17.25-24.12-25.37-34.49-9.92,13.53-19.27,26.72-28.07,39.57-8.79,12.85-17.25,26.04-25.37,39.57-8.12,13.53-16.46,28.41-25.03,44.64h-94.68Z"/>
  <g>
    <rect class="cls-1" x="34" y="235.08" width="204.4" height="58.33"/>
    <path class="cls-1" d="M281.8,133.58c48.37,0,90.59,26.28,113.18,65.34l88.93-51.33c-40.35-69.74-115.75-116.67-202.12-116.67-106.08,0-195.61,70.8-223.97,167.71h110.96c22.64-38.89,64.77-65.04,113.01-65.04Z"/>
    <path class="cls-1" d="M498.33,264.25h-187.12v72.92h79.04c-23.47,34.84-63.28,57.75-108.45,57.75-48.24,0-90.38-26.15-113.01-65.04H57.84c28.35,96.92,117.89,167.71,223.97,167.71,128.87,0,233.34-104.47,233.34-233.34h-16.81Z"/>
  </g>
</svg>